# xmcd CD database file
#
# Track frame offsets:
#	150
#	21825
#	42825
#	58425
#	71475
#	89625
#	102225
#	121725
#	141225
#	162900
#	181950
#	198225
#	216450
#
# Disc length: 3098 seconds
#
# Revision: 1
# Processed by: cddbd v1.5.1PL2 Copyright (c) Steve Scherf et al.
# Submitted via: freeDBTagger 0.8.2.1
#
DISCID=c10c180d
DTITLE=Roberta Flack - The Best Of Roberta Flack
DYEAR=1986
DGENRE=blues
TTITLE0=Killing Me Softly With His Song
TTITLE1=The Closer I Get To You
TTITLE2=You've Got A Friend
TTITLE3=Feel Like Makin' Love
TTITLE4=Will You Still Love Me Tomorrow
TTITLE5=Where Is The Love
TTITLE6=The First Time Ever I Saw Your Face
TTITLE7=The First Time Ever I Saw Your Face
TTITLE8=Back Together Again
TTITLE9=You Are My Heaven
TTITLE10=If Ever I See You Again
TTITLE11=Jesse
TTITLE12=Tonight I Celebrate My Love
EXTD=
EXTT0=
EXTT1=
EXTT2=
EXTT3=
EXTT4=
EXTT5=
EXTT6=
EXTT7=
EXTT8=
EXTT9=
EXTT10=
EXTT11=
EXTT12=
PLAYORDER=
